<svg width="30" height="26" viewBox="0 0 30 26" fill="none" xmlns="http://www.w3.org/2000/svg">
<path d="M5.26209 19.6873C5.10179 19.6846 4.95424 19.7702 4.87318 19.9086L3.25562 22.682C2.75013 23.5482 3.04249 24.6593 3.90956 25.1648C4.19737 25.3333 4.5116 25.4135 4.82309 25.4135C5.44789 25.4135 6.05539 25.0892 6.39238 24.5136L8.10011 21.5881C8.24128 21.3459 8.21123 21.0417 8.02907 20.8285C7.17202 19.8276 5.82678 19.6964 5.26209 19.6873Z" fill="#FE8D00"/>
<path d="M18.055 16.1271C17.8236 15.8739 17.4976 15.7309 17.1542 15.7309H11.5191L18.9321 3.03174C19.4375 2.16558 19.147 1.05442 18.2808 0.548931C17.4147 0.0434422 16.3017 0.335806 15.7953 1.20015L14.9856 2.58728L14.1759 1.20015C13.6695 0.335806 12.5593 0.0434422 11.6931 0.548931C10.8269 1.05442 10.5337 2.16558 11.0391 3.03174L12.8826 6.18946L7.3131 15.7309H2.36114C1.27821 15.7309 0.418424 16.679 0.560507 17.7865C0.677999 18.701 1.50044 19.3631 2.42216 19.3631H18.9066C19.2454 19.3631 19.5013 19.0525 19.4366 18.7201C19.2153 17.588 18.5723 16.6927 18.055 16.1271Z" fill="#FE8D00"/>
<path d="M27.3533 15.7318H22.659L17.4621 6.82605C17.3837 6.69125 17.197 6.6703 17.0923 6.78597C16.6815 7.24045 15.8372 8.45089 15.7999 10.7452C15.7953 11.0257 15.8682 11.3035 16.0094 11.5458L23.578 24.5136C23.9178 25.0892 24.5253 25.4134 25.1501 25.4134C25.4588 25.4134 25.7758 25.3333 26.0636 25.1648C26.9297 24.6593 27.2203 23.5481 26.7148 22.682L24.7785 19.364H27.3533C28.3569 19.364 29.1694 18.5516 29.1694 17.5479C29.1694 16.546 28.3569 15.7318 27.3533 15.7318Z" fill="#FE8D00"/>
</svg>
