<svg width="1920" height="1017" viewBox="0 0 1920 1017" fill="none" xmlns="http://www.w3.org/2000/svg">
<path d="M248 130.752C59.9922 193.421 -73.3839 40.8794 -131.849 0C-182.554 39.672 -292.654 125.019 -327.423 149.029C-370.884 179.041 -429.867 519.531 -432.971 569.207C-436.075 618.883 -188.245 810.861 -32.51 903.487C123.225 996.112 129.5 981.752 257.5 981.752C385.5 981.752 574.088 903.487 721.5 903.487C882.124 903.487 1019 1023.25 1202.5 999.735C1394.6 975.116 1653.2 896.752 1844.5 940.252C2027 981.752 2185.55 1188.61 2221.77 1172.05C2257.98 1155.49 2318 933.5 2318 903.487C2318 873.474 2151.5 -42.2482 2003.43 99.3525C1870.27 226.688 1818.01 145.59 1721.96 99.3525C1580.5 31.2517 1490 31.2517 1341.16 76.0667C1135.2 138.084 931.939 60.584 769.5 31.2517C571.531 -4.49647 488 50.7517 248 130.752Z" fill="#E4F7FF"/>
</svg>
