<?xml version="1.0" encoding="utf-8"?>
<!-- Generator: Adobe Illustrator 23.0.0, SVG Export Plug-In . SVG Version: 6.00 Build 0)  -->
<svg version="1.1" id="Layer_1" xmlns="http://www.w3.org/2000/svg" xmlns:xlink="http://www.w3.org/1999/xlink" x="0px" y="0px"
	 viewBox="0 0 1162.4 121.9" style="enable-background:new 0 0 1162.4 121.9;" xml:space="preserve">
<style type="text/css">
	.st0{fill:#f5f7fa;}
</style>
<title>top</title>
<g>
	<g id="Layer_1-2">
		<path class="st0" d="M1162.4,114.6V0H0v79.3c10.7,6.6,22.1,12,33.9,16.3c7,2.5,37.3,13,78.6,10.6c74-4.2,118.1-45.7,201.1-64.5
			c47.9-10.8,84.9-8.7,123-6.5c99.7,5.7,124.1,34.2,232.9,40.8c33.8,2.1,64.5,3.9,105.8-1.5c75.5-10,101.9-33.1,166.3-26.2
			c23.6,2.6,46.7,8.1,69,16.1c28.6,11.1,60.5,29.6,65,32.3c26.4,15.4,40.3,26.5,61.5,25.2C1146,121.2,1154.6,118.7,1162.4,114.6z"/>
	</g>
</g>
</svg>
