<svg xmlns="http://www.w3.org/2000/svg" width="352" height="79" viewBox="0 0 352 79">
    <g fill="#FFF" fill-rule="evenodd">
        <path d="M316.992 55.884l.008 1.028h-33.974c.268 3.777 1.571 6.935 3.884 9.4 2.542 2.713 5.597 4.031 9.342 4.031 1.8 0 3.576-.327 5.278-.972 1.696-.642 3.154-1.503 4.336-2.558 1.19-1.066 2.517-2.845 3.94-5.286l.481-.823 5.789 3.135-.443.896c-1.392 2.817-3.03 5.13-4.87 6.876a19.515 19.515 0 0 1-6.262 4.014c-2.306.912-4.941 1.375-7.83 1.375-6.44 0-11.56-2.221-15.215-6.603-3.62-4.337-5.456-9.312-5.456-14.79 0-5.152 1.556-9.809 4.627-13.84 3.91-5.155 9.215-7.767 15.765-7.767 6.73 0 12.185 2.673 16.213 7.942 2.863 3.724 4.339 8.414 4.387 13.942zm-33.167-5.342h25.526c-.586-1.939-1.359-3.535-2.305-4.754-1.139-1.467-2.676-2.672-4.567-3.58a13.822 13.822 0 0 0-6.018-1.373c-3.49 0-6.404 1.122-8.907 3.428-1.56 1.434-2.811 3.542-3.73 6.28zM233.556 61.972L221.412 35H214l18.461 41h2.188L253 35h-7.445zM189.992 55.884l.008 1.028h-33.974c.268 3.777 1.571 6.935 3.884 9.4 2.542 2.713 5.597 4.031 9.342 4.031 1.8 0 3.576-.327 5.278-.972 1.696-.642 3.154-1.503 4.336-2.558 1.19-1.066 2.517-2.845 3.94-5.286l.481-.823 5.789 3.135-.443.896c-1.392 2.817-3.03 5.13-4.87 6.876a19.515 19.515 0 0 1-6.262 4.014c-2.306.912-4.941 1.375-7.83 1.375-6.44 0-11.56-2.221-15.215-6.603-3.62-4.337-5.456-9.312-5.456-14.79 0-5.152 1.556-9.809 4.627-13.84 3.91-5.155 9.215-7.767 15.765-7.767 6.73 0 12.185 2.673 16.213 7.942 2.863 3.724 4.339 8.414 4.387 13.942zm-33.167-5.342h25.526c-.586-1.939-1.359-3.535-2.305-4.754-1.139-1.467-2.676-2.672-4.567-3.58a13.822 13.822 0 0 0-6.018-1.373c-3.49 0-6.404 1.122-8.907 3.428-1.56 1.434-2.811 3.542-3.73 6.28zM344 77h7V21h-7zM115 77h7V21h-7zM23 80h55v-6H23zM23 30L6 19l.001.001zM22.07 30.957L5.975 19.164v-.001z"/>
        <path d="M49.8-1L67.01 36.971 95 16.457 77.932 67H21.068L4 16.457l28.198 20.665L49.801-1zm15.167 62.134h8.841l9.835-29.12-29.208 21.403 10.532 7.717zm-9.869 0L49.5 57.033l-5.596 4.101h11.195zm-5.345-48.216l-12.79 27.694L49.5 49.801l12.737-9.335-12.483-27.548zM25.192 61.134h8.842l10.532-7.717-29.21-21.404 9.836 29.121z"/>
        <path d="M36.336 46.128l-22.953-16.82h-.001z"/>
        <path d="M36 46L13 29l.001.001z"/>
    </g>
</svg>
