<svg xmlns="http://www.w3.org/2000/svg" width="944" height="434" viewBox="0 0 944 434">
    <g fill="#4B5E6E" fill-rule="evenodd">
        <path fill-opacity=".07" fill-rule="nonzero" d="M34 5h910v1H34z"/>
        <path fill-opacity=".12" fill-rule="nonzero" d="M34 65h910v1H34z"/>
        <path fill-opacity=".2" fill-rule="nonzero" d="M34 125h910v1H34zM34 185h910v1H34zM34 245h910v1H34zM34 305h910v1H34zM34 365h910v1H34z"/>
        <text font-family="Montserrat-Regular, Montserrat" font-size="14" transform="translate(0 -4)">
            <tspan x="3" y="374">0%</tspan>
        </text>
        <text font-family="Montserrat-Regular, Montserrat" font-size="14" transform="translate(0 -4)">
            <tspan x="3" y="314">2%</tspan>
        </text>
        <text font-family="Montserrat-Regular, Montserrat" font-size="14" transform="translate(0 -4)">
            <tspan x="3" y="254">4%</tspan>
        </text>
        <text font-family="Montserrat-Regular, Montserrat" font-size="14" transform="translate(0 -4)">
            <tspan x="3" y="193">6%</tspan>
        </text>
        <text font-family="Montserrat-Regular, Montserrat" font-size="14" transform="translate(0 -4)">
            <tspan x="3" y="135">8%</tspan>
        </text>
        <text font-family="Montserrat-Regular, Montserrat" font-size="14" opacity=".5" transform="translate(0 -4)">
            <tspan x="0" y="74">10%</tspan>
        </text>
        <text font-family="Montserrat-Regular, Montserrat" font-size="14" opacity=".25" transform="translate(0 -4)">
            <tspan x="1" y="14">12%</tspan>
        </text>
        <text font-family="Montserrat-Bold, Montserrat" font-size="18" font-weight="bold" transform="translate(91 388)">
            <tspan x="115" y="45">2015</tspan>
        </text>
        <text font-family="Montserrat-Bold, Montserrat" font-size="18" font-weight="bold" transform="translate(91 388)">
            <tspan x="0" y="45">2014</tspan>
        </text>
        <text font-family="Montserrat-Bold, Montserrat" font-size="18" font-weight="bold" transform="translate(91 388)">
            <tspan x="349" y="45">2016</tspan>
        </text>
        <text font-family="Montserrat-Bold, Montserrat" font-size="18" font-weight="bold" transform="translate(91 388)">
            <tspan x="600" y="45">2017</tspan>
        </text>
        <text font-family="Montserrat-Regular, Montserrat" font-size="14" transform="translate(91 388)">
            <tspan x="0" y="14">Nov</tspan>
        </text>
        <text font-family="Montserrat-Regular, Montserrat" font-size="14" transform="translate(91 388)">
            <tspan x="115" y="14">Mar</tspan>
        </text>
        <text font-family="Montserrat-Regular, Montserrat" font-size="14" transform="translate(91 388)">
            <tspan x="180" y="14">Jun </tspan>
        </text>
        <text font-family="Montserrat-Regular, Montserrat" font-size="14" transform="translate(91 388)">
            <tspan x="241" y="14">Oct</tspan>
        </text>
        <text font-family="Montserrat-Regular, Montserrat" font-size="14" transform="translate(91 388)">
            <tspan x="349" y="14">Mar </tspan>
        </text>
        <text font-family="Montserrat-Regular, Montserrat" font-size="14" transform="translate(91 388)">
            <tspan x="411" y="14">Jun</tspan>
        </text>
        <text font-family="Montserrat-Regular, Montserrat" font-size="14" transform="translate(91 388)">
            <tspan x="473" y="14">Oct</tspan>
        </text>
        <text font-family="Montserrat-Regular, Montserrat" font-size="14" transform="translate(91 388)">
            <tspan x="600" y="14">Mar</tspan>
        </text>
        <text font-family="Montserrat-Regular, Montserrat" font-size="14" transform="translate(91 388)">
            <tspan x="658" y="14">Jun </tspan>
        </text>
        <text font-family="Montserrat-Regular, Montserrat" font-size="14" transform="translate(91 388)">
            <tspan x="718" y="14">Sep </tspan>
        </text>
        <text font-family="Montserrat-Regular, Montserrat" font-size="14" transform="translate(91 388)">
            <tspan x="779" y="14">Dec</tspan>
        </text>
    </g>
</svg>
