<svg width="476" height="163" viewBox="0 0 476 163" fill="none" xmlns="http://www.w3.org/2000/svg">
<g filter="url(#filter0_d)">
<rect x="35" y="10" width="406" height="93" rx="20" fill="white"/>
<rect x="36.5" y="11.5" width="403" height="90" rx="18.5" stroke="url(#paint0_linear)" stroke-width="3"/>
</g>
<path d="M227.479 43H237.186C245.04 43 251.426 49.3858 251.426 57.2403V66.9785C251.426 69.0858 249.734 70.7781 247.627 70.7781H237.984C230.098 70.7781 223.68 64.3923 223.68 56.474V46.7995C223.68 44.6922 225.372 43 227.479 43Z" fill="#309245"/>
<path d="M250.309 69.6924C244.274 59.7945 234.791 52.5147 223.68 49.2261V56.4739C223.712 64.3603 230.098 70.7461 237.984 70.778H247.658C248.648 70.778 249.606 70.3949 250.309 69.6924Z" fill="#44A257"/>
<path d="M237.633 52.7064C239.932 52.7064 241.815 54.5902 241.815 56.889C241.815 59.1879 239.932 61.0717 237.633 61.0717C235.334 61.0717 233.45 59.1879 233.45 56.889C233.482 54.5902 235.334 52.7064 237.633 52.7064ZM237.633 48.2363C232.843 48.2363 228.98 52.0997 228.98 56.889C228.98 61.6784 232.843 65.5417 237.633 65.5417C242.39 65.5417 246.286 61.6784 246.286 56.889C246.286 52.0997 242.422 48.2363 237.633 48.2363Z" fill="#F1F2F2"/>
<path d="M233.482 48.2363H231.886C230.225 48.2363 228.852 49.5773 228.852 51.2696V67.4575C230.225 68.6069 231.79 69.469 233.482 70.0437V48.2363Z" fill="#F1F2F2"/>
<path d="M237.697 48.2363H232.301V51.1099H237.697V48.2363Z" fill="#F1F2F2"/>
<path d="M182.907 48.843H183.354C184.95 48.843 186.387 49.4816 187.696 50.7907C188.718 51.8763 189.261 53.2811 189.293 54.7498V54.8456C189.293 56.8572 188.367 58.5174 186.547 59.7946C185.557 60.4332 184.376 60.7844 183.194 60.7844H183.066C182.077 60.7844 181.119 60.529 180.257 60.082V66.6912C180.257 66.7232 180.257 66.7232 180.225 66.7551H177.064C177.032 66.7551 177.032 66.7551 177 66.7232V54.5902C177 53.0896 177.671 51.6847 178.98 50.3756C180.257 49.3539 181.566 48.843 182.907 48.843ZM183.098 52.0359H182.971C182.013 52.0359 181.215 52.5148 180.576 53.5046C180.384 53.9197 180.257 54.3667 180.225 54.8137C180.225 55.8993 180.768 56.7614 181.885 57.3361C182.236 57.4957 182.651 57.5915 183.035 57.5915H183.162C184.216 57.5915 185.046 57.0807 185.653 56.0589C185.844 55.6758 185.972 55.2607 185.972 54.8456V54.7179C185.972 53.6962 185.461 52.898 184.407 52.2913C184.056 52.1317 183.673 52.0359 183.258 52.004H183.13C183.13 52.004 183.098 52.004 183.098 51.972V52.0359Z" fill="#595A5A"/>
<path d="M213.207 48.843H213.654C215.219 48.843 216.687 49.4816 217.996 50.7907C219.018 51.8763 219.561 53.2811 219.593 54.7498V54.8456C219.593 56.8572 218.667 58.5174 216.847 59.7946C215.857 60.4332 214.676 60.7844 213.495 60.7844H213.399C212.409 60.7844 211.451 60.529 210.589 60.082V66.6912C210.589 66.7232 210.557 66.7551 210.557 66.7551H207.396C207.364 66.7551 207.332 66.7232 207.332 66.7232V54.5902C207.332 53.0896 208.003 51.6847 209.312 50.3756C210.557 49.3539 211.866 48.843 213.207 48.843ZM213.399 52.0359H213.271C212.313 52.0359 211.515 52.5148 210.876 53.5046C210.685 53.9197 210.557 54.3667 210.557 54.8137C210.557 55.8993 211.1 56.7614 212.217 57.3361C212.569 57.4957 212.984 57.5915 213.367 57.5915H213.495C214.548 57.5915 215.378 57.0807 215.985 56.0589C216.177 55.6758 216.304 55.2607 216.304 54.8456V54.7179C216.304 53.6962 215.793 52.898 214.74 52.2913C214.389 52.1317 214.005 52.0359 213.59 52.004H213.463C213.431 52.004 213.431 52.004 213.431 51.972L213.399 52.0359Z" fill="#595A5A"/>
<path d="M197.498 48.811H197.881C199.254 48.811 200.563 49.3858 201.745 50.5033C202.735 51.6208 203.214 52.7702 203.214 53.9196V54.3986C203.214 55.2607 202.862 56.1547 202.128 57.1125L197.53 63.7856H202.958C202.99 63.7856 203.022 63.8176 203.022 63.8495V66.6273C203.022 66.6592 203.022 66.6912 202.958 66.6912H192.038V66.6273C195.678 61.3591 197.594 58.5813 197.786 58.3258C199.318 56.3782 200.085 55.3564 200.085 55.2607C200.244 54.9414 200.34 54.5902 200.34 54.2389C200.34 53.2811 199.861 52.5148 198.903 51.972C198.584 51.8123 198.233 51.7166 197.881 51.7166H197.754H197.69H197.562C196.796 51.7166 196.125 52.0997 195.583 52.8341C195.295 53.2491 195.136 53.76 195.136 54.2709C195.136 54.6859 195.263 55.101 195.455 55.4522L195.391 55.4842H192.326C192.23 55.4522 192.166 55.0372 192.134 54.207C192.134 52.6425 192.773 51.3015 194.05 50.152C195.008 49.29 196.221 48.811 197.498 48.811Z" fill="#595A5A"/>
<path d="M256.12 48.7152H259.281C259.313 48.7152 259.344 48.7471 259.344 48.7791V55.3883H259.376C260.27 54.9413 261.26 54.6859 262.25 54.6859C264.293 54.6859 265.986 55.5799 267.359 57.3679C268.029 58.3258 268.38 59.4752 268.38 60.6566V60.7524C268.38 62.7 267.486 64.3284 265.666 65.6694C264.709 66.2761 263.623 66.6273 262.505 66.6592H261.995C260.59 66.6592 259.249 66.1164 257.972 64.9989C256.758 63.7218 256.12 62.3488 256.12 60.912V48.7791C256.088 48.7471 256.12 48.7152 256.12 48.7152ZM259.344 60.5289V60.6566C259.344 60.6566 259.344 60.6885 259.313 60.6885L259.344 60.7524V60.8162C259.344 61.806 259.887 62.6362 260.973 63.2428C261.356 63.4025 261.771 63.4663 262.186 63.4983C263.367 63.4983 264.262 62.9235 264.868 61.7422C264.964 61.4229 265.028 61.1036 265.06 60.7843V60.6566C265.06 59.6349 264.549 58.8366 263.559 58.2619C263.144 58.0384 262.697 57.9426 262.218 57.9426C260.909 57.9426 259.983 58.6131 259.44 59.9222C259.408 60.1138 259.376 60.3054 259.344 60.5289Z" fill="#595A5A"/>
<path d="M286.739 48.7152H289.9C289.932 48.7152 289.964 48.7471 289.964 48.7791V55.3883H289.996C290.89 54.9413 291.88 54.6859 292.87 54.6859C294.913 54.6859 296.605 55.5799 297.978 57.3679C298.617 58.3258 299 59.4752 299 60.6566V60.7524C299 62.7 298.106 64.3284 296.286 65.6694C295.328 66.2761 294.243 66.6273 293.125 66.6592H292.582C291.177 66.6592 289.836 66.1164 288.559 64.9989C287.346 63.7218 286.707 62.3488 286.707 60.912V48.7791C286.707 48.7471 286.707 48.7152 286.739 48.7152ZM289.964 60.5289V60.6566C289.964 60.6566 289.964 60.6885 289.932 60.6885L289.964 60.7524V60.8162C289.964 61.806 290.507 62.6362 291.593 63.2428C291.976 63.4025 292.391 63.4663 292.806 63.4983C293.987 63.4983 294.881 62.9235 295.488 61.7422C295.584 61.4229 295.647 61.1036 295.679 60.7843V60.6566C295.679 59.6349 295.169 58.8366 294.179 58.2619C293.764 58.0384 293.317 57.9426 292.838 57.9426C291.529 57.9426 290.603 58.6131 290.06 59.9222C290.028 60.1138 289.964 60.3054 289.964 60.5289Z" fill="#595A5A"/>
<path d="M276.586 48.811H276.969C278.342 48.811 279.651 49.3858 280.833 50.5033C281.822 51.6208 282.301 52.7702 282.301 53.9196V54.3986C282.301 55.2607 281.95 56.1547 281.184 57.1125L276.618 63.7856H282.046C282.078 63.7856 282.11 63.8176 282.11 63.8495V66.6273C282.11 66.6592 282.11 66.6912 282.046 66.6912H271.094V66.6273C274.734 61.3591 276.65 58.5813 276.841 58.3258C278.374 56.3782 279.14 55.3564 279.14 55.2607C279.3 54.9414 279.396 54.5902 279.396 54.2389C279.396 53.2811 278.917 52.5148 277.959 51.972C277.64 51.8123 277.288 51.7166 276.937 51.7166H276.809H276.746H276.618C275.852 51.7166 275.181 52.0997 274.638 52.8341C274.351 53.2491 274.191 53.76 274.191 54.2709C274.191 54.6859 274.319 55.101 274.511 55.4522L274.447 55.4842H271.414C271.318 55.4522 271.254 55.0372 271.222 54.207C271.222 52.6425 271.861 51.3015 273.17 50.152C274.127 49.29 275.341 48.843 276.586 48.811Z" fill="#595A5A"/>
<defs>
<filter id="filter0_d" x="0" y="0" width="476" height="163" filterUnits="userSpaceOnUse" color-interpolation-filters="sRGB">
<feFlood flood-opacity="0" result="BackgroundImageFix"/>
<feColorMatrix in="SourceAlpha" type="matrix" values="0 0 0 0 0 0 0 0 0 0 0 0 0 0 0 0 0 0 127 0"/>
<feOffset dy="25"/>
<feGaussianBlur stdDeviation="17.5"/>
<feColorMatrix type="matrix" values="0 0 0 0 0 0 0 0 0 0.639216 0 0 0 0 1 0 0 0 0.05 0"/>
<feBlend mode="normal" in2="BackgroundImageFix" result="effect1_dropShadow"/>
<feBlend mode="normal" in="SourceGraphic" in2="effect1_dropShadow" result="shape"/>
</filter>
<linearGradient id="paint0_linear" x1="35" y1="103" x2="270.914" y2="-149.14" gradientUnits="userSpaceOnUse">
<stop stop-color="#00A3FF"/>
<stop offset="1" stop-color="#44DBC3"/>
</linearGradient>
</defs>
</svg>
