<svg width="476" height="163" viewBox="0 0 476 163" fill="none" xmlns="http://www.w3.org/2000/svg">
<g filter="url(#filter0_d)">
<rect x="35" y="10" width="406" height="93" rx="20" fill="white"/>
<rect x="36.5" y="11.5" width="403" height="90" rx="18.5" stroke="url(#paint0_linear)" stroke-width="3"/>
</g>
<path d="M237.5 84C252.688 84 265 71.6878 265 56.5C265 41.3122 252.688 29 237.5 29C222.312 29 210 41.3122 210 56.5C210 71.6878 222.312 84 237.5 84Z" fill="#2C5976"/>
<path d="M218.916 50.8756C219.811 50.8756 220.698 50.8669 221.594 50.9027C222.295 52.7212 223.528 54.3439 223.839 56.3053C224.177 54.3537 225.33 52.6769 226.092 50.8756C226.872 50.8756 227.653 50.8756 228.433 50.8669C227.35 52.9874 226.25 55.0893 225.141 57.1924C224.991 57.5029 224.805 57.8085 224.822 58.1781C224.805 59.4644 224.831 60.7507 224.822 62.0456H222.633C222.597 60.6792 222.694 59.3129 222.588 57.9563C221.435 55.5686 220.149 53.2264 218.916 50.8756ZM231.663 53.989C233.003 53.7143 234.581 53.9447 235.496 55.0449C236.41 56.1452 236.524 57.6446 236.374 59.0011C236.251 60.2431 235.512 61.4764 234.315 61.947C232.816 62.5323 230.856 62.3278 229.791 61.0242C228.824 59.7465 228.754 57.9908 229.117 56.4914C229.401 55.2581 230.412 54.2207 231.663 53.989ZM232.142 55.7287C231.326 55.9751 231.13 56.9165 231.077 57.6532C231.033 58.496 231.086 59.4718 231.693 60.11C232.359 60.8197 233.689 60.5449 234.027 59.6406C234.394 58.6247 234.387 57.5115 234.008 56.5C233.757 55.7632 232.843 55.4269 232.142 55.7287Z" fill="white"/>
<path d="M237.899 50.9643C239.452 50.7869 241.031 50.6538 242.601 50.8411C243.408 50.9483 244.259 51.2107 244.819 51.8612C245.493 52.6005 245.511 53.7241 245.188 54.6297C244.922 55.3751 244.195 55.7644 243.574 56.1636C244.204 56.4101 244.914 56.6565 245.299 57.2725C246.213 58.6919 245.669 60.8307 244.129 61.5577C242.203 62.5162 239.968 62.1737 237.909 61.984C237.855 58.3099 237.899 54.6371 237.899 50.9643ZM240.056 52.6411C240.001 53.6169 240.001 54.6014 240.028 55.5772C240.933 55.5599 241.971 55.6486 242.69 54.9747C243.391 54.4683 243.328 53.2091 242.504 52.8629C241.741 52.4994 240.871 52.6559 240.056 52.6411ZM240.02 57.307C240.012 58.2927 240.012 59.2783 240.02 60.264C240.996 60.3083 242.114 60.4858 242.947 59.8562C243.666 59.3412 243.666 58.0721 242.867 57.6384C241.997 57.1653 240.969 57.3378 240.02 57.307ZM247.799 50.8842C248.553 50.5146 249.751 50.8497 249.848 51.7898C249.875 53.0218 247.968 53.3779 247.347 52.4194C246.992 51.9167 247.241 51.1331 247.799 50.8842ZM251.765 52.6091C252.465 52.423 253.157 52.2284 253.86 52.0325C253.86 52.7249 253.868 53.4075 253.868 54.0913C254.516 54.0913 255.172 54.0999 255.82 54.1258C255.811 54.6938 255.803 55.2618 255.793 55.8211C255.155 55.8297 254.507 55.8297 253.868 55.8297C253.913 57.1961 253.745 58.5711 253.966 59.9276C254.212 60.6903 255.163 60.2566 255.714 60.1851C255.837 60.7174 255.96 61.2497 256.084 61.7733C255.055 62.1367 253.893 62.483 252.828 62.0567C252.089 61.7819 251.817 60.9564 251.781 60.2467C251.684 58.783 251.764 57.3107 251.746 55.8384C251.382 55.8384 251.036 55.8384 250.672 55.847C250.645 55.2618 250.645 54.6851 250.645 54.0999C251.015 54.0913 251.373 54.0913 251.737 54.0814C251.747 53.5898 251.747 53.0933 251.768 52.6054L251.765 52.6091ZM247.453 54.0999C248.163 54.0913 248.864 54.0913 249.573 54.0999V62.0443H247.455L247.453 54.0999Z" fill="#00A9D2"/>
<defs>
<filter id="filter0_d" x="0" y="0" width="476" height="163" filterUnits="userSpaceOnUse" color-interpolation-filters="sRGB">
<feFlood flood-opacity="0" result="BackgroundImageFix"/>
<feColorMatrix in="SourceAlpha" type="matrix" values="0 0 0 0 0 0 0 0 0 0 0 0 0 0 0 0 0 0 127 0"/>
<feOffset dy="25"/>
<feGaussianBlur stdDeviation="17.5"/>
<feColorMatrix type="matrix" values="0 0 0 0 0 0 0 0 0 0.639216 0 0 0 0 1 0 0 0 0.05 0"/>
<feBlend mode="normal" in2="BackgroundImageFix" result="effect1_dropShadow"/>
<feBlend mode="normal" in="SourceGraphic" in2="effect1_dropShadow" result="shape"/>
</filter>
<linearGradient id="paint0_linear" x1="35" y1="103" x2="270.914" y2="-149.14" gradientUnits="userSpaceOnUse">
<stop stop-color="#00A3FF"/>
<stop offset="1" stop-color="#44DBC3"/>
</linearGradient>
</defs>
</svg>
